<svg width="14" height="15" viewBox="0 0 14 15" fill="none" xmlns="http://www.w3.org/2000/svg">
<path fill-rule="evenodd" clip-rule="evenodd" d="M2.60427 9.39463C3.15125 8.88184 3.89312 8.59375 4.66667 8.59375H9.33333C10.1069 8.59375 10.8487 8.88184 11.3957 9.39463C11.9427 9.90742 12.25 10.6029 12.25 11.3281V12.4219C12.25 12.7239 11.9888 12.9688 11.6667 12.9688C11.3445 12.9688 11.0833 12.7239 11.0833 12.4219V11.3281C11.0833 10.893 10.899 10.4757 10.5708 10.168C10.2426 9.86035 9.79746 9.6875 9.33333 9.6875H4.66667C4.20254 9.6875 3.75742 9.86035 3.42923 10.168C3.10104 10.4757 2.91667 10.893 2.91667 11.3281V12.4219C2.91667 12.7239 2.6555 12.9688 2.33333 12.9688C2.01117 12.9688 1.75 12.7239 1.75 12.4219V11.3281C1.75 10.6029 2.05729 9.90743 2.60427 9.39463Z" fill="white"/>
<path fill-rule="evenodd" clip-rule="evenodd" d="M6.99992 3.125C6.03342 3.125 5.24992 3.85953 5.24992 4.76562C5.24992 5.67172 6.03342 6.40625 6.99992 6.40625C7.96642 6.40625 8.74992 5.67172 8.74992 4.76562C8.74992 3.85953 7.96642 3.125 6.99992 3.125ZM4.08325 4.76562C4.08325 3.25547 5.38909 2.03125 6.99992 2.03125C8.61075 2.03125 9.91659 3.25547 9.91659 4.76562C9.91659 6.27578 8.61075 7.5 6.99992 7.5C5.38909 7.5 4.08325 6.27578 4.08325 4.76562Z" fill="white"/>
</svg>
